<svg width="26" height="19" viewBox="0 0 26 19" fill="none" xmlns="http://www.w3.org/2000/svg">
<path d="M21.9458 3.52478L15.1704 10.4657C13.8285 11.9817 12.3781 11.9961 10.8191 10.5091C9.26005 9.02202 6.96926 6.7537 3.94669 3.70411" stroke="white"/>
<path d="M16.0057 9.58425L22.0651 15.5242" stroke="white"/>
<path d="M10.006 9.64402L4.06612 15.7035" stroke="white"/>
<path d="M4.42165 1.19925L21.4208 1.02989C23.0776 1.01338 24.434 2.34308 24.4505 3.99985L24.5601 14.9993C24.5766 16.6561 23.2469 18.0125 21.5902 18.029L4.59101 18.1984C2.93424 18.2149 1.57778 16.8852 1.56127 15.2284L1.45168 4.22899C1.43518 2.57222 2.76487 1.21576 4.42165 1.19925Z" stroke="white"/>
</svg>
